<svg xmlns="http://www.w3.org/2000/svg" viewBox="0 0 48 48">
  <circle cx="24" cy="24" r="22" fill="#0068FF"/>
  <path d="M33.5 18.5c0-5.2-4.8-9.5-10.5-9.5S12.5 13.3 12.5 18.5c0 4.7 3.9 8.6 9 9.3v3.7l3.5-2.1c.5.1 1 .1 1.5.1 5.7 0 10.5-4.3 10.5-9.5zm-14.2 2.3c-.7 0-1.3-.6-1.3-1.3s.6-1.3 1.3-1.3 1.3.6 1.3 1.3-.6 1.3-1.3 1.3zm4.7 0c-.7 0-1.3-.6-1.3-1.3s.6-1.3 1.3-1.3 1.3.6 1.3 1.3-.6 1.3-1.3 1.3zm4.7 0c-.7 0-1.3-.6-1.3-1.3s.6-1.3 1.3-1.3 1.3.6 1.3 1.3-.6 1.3-1.3 1.3z" fill="#fff"/>
  <path d="M35.5 28c0 4.4-4 8-9 8-.8 0-1.5-.1-2.2-.2l-2.8 1.7v-3c-3.8-1.2-6.5-4.3-6.5-7.8 0-.3 0-.6.1-.9 1.4 3.4 5.1 5.9 9.4 5.9.6 0 1.2-.1 1.8-.2l4.2 2.5v-4.4c2.8-.8 5-3 5-5.6z" fill="#fff" opacity=".6"/>
</svg>
